<svg width="24" height="24" viewBox="0 0 24 24" fill="none" xmlns="http://www.w3.org/2000/svg">
<g clip-path="url(#clip0_816_28264)">
<path d="M12 0.75C9.77497 0.75 7.59989 1.4098 5.74984 2.64597C3.89979 3.88213 2.45785 5.63914 1.60636 7.69481C0.754874 9.75048 0.532087 12.0125 0.966171 14.1948C1.40025 16.3771 2.47171 18.3816 4.04505 19.955C5.61839 21.5283 7.62295 22.5998 9.80524 23.0338C11.9875 23.4679 14.2495 23.2451 16.3052 22.3936C18.3609 21.5422 20.1179 20.1002 21.354 18.2502C22.5902 16.4001 23.25 14.225 23.25 12C23.25 10.5226 22.959 9.05972 22.3937 7.69481C21.8283 6.3299 20.9996 5.08971 19.955 4.04505C18.9103 3.00039 17.6701 2.17172 16.3052 1.60636C14.9403 1.04099 13.4774 0.75 12 0.75V0.75Z" stroke="#F2F2F2" stroke-width="1.5" stroke-linecap="round" stroke-linejoin="round"/>
<path d="M8.89438 16.754L6.98438 10.854L11.9994 7.20801L17.0144 10.854L15.1044 16.754H8.89438Z" stroke="#F2F2F2" stroke-width="1.5" stroke-linecap="round" stroke-linejoin="round"/>
<path d="M16.3012 1.60059L12.0002 4.49959L7.69922 1.60059" stroke="#F2F2F2" stroke-width="1.5" stroke-linecap="round" stroke-linejoin="round"/>
<path d="M14.5977 22.948L16.7367 18.582L21.6207 17.832" stroke="#F2F2F2" stroke-width="1.5" stroke-linecap="round" stroke-linejoin="round"/>
<path d="M23.2122 12.9092L19.7852 9.49623L20.5202 4.65723" stroke="#F2F2F2" stroke-width="1.5" stroke-linecap="round" stroke-linejoin="round"/>
<path d="M12 4.5V7.208" stroke="#F2F2F2" stroke-width="1.5" stroke-linecap="round" stroke-linejoin="round"/>
<path d="M17.0156 10.8541L19.7876 9.49609" stroke="#F2F2F2" stroke-width="1.5" stroke-linecap="round" stroke-linejoin="round"/>
<path d="M0.785156 12.9092L4.21216 9.49623L3.47716 4.65723" stroke="#F2F2F2" stroke-width="1.5" stroke-linecap="round" stroke-linejoin="round"/>
<path d="M6.98684 10.8541L4.21484 9.49609" stroke="#F2F2F2" stroke-width="1.5" stroke-linecap="round" stroke-linejoin="round"/>
<path d="M15.1055 16.7539L16.7385 18.5819" stroke="#F2F2F2" stroke-width="1.5" stroke-linecap="round" stroke-linejoin="round"/>
<path d="M9.40191 22.948L7.26291 18.582L2.37891 17.832" stroke="#F2F2F2" stroke-width="1.5" stroke-linecap="round" stroke-linejoin="round"/>
<path d="M8.89472 16.7539L7.26172 18.5819" stroke="#F2F2F2" stroke-width="1.5" stroke-linecap="round" stroke-linejoin="round"/>
</g>
<defs>
<clipPath id="clip0_816_28264">
<rect width="24" height="24" fill="white"/>
</clipPath>
</defs>
</svg>
