<svg width="25" height="24" viewBox="0 0 25 24" fill="none" xmlns="http://www.w3.org/2000/svg">
<g clip-path="url(#clip0_816_28295)">
<path d="M16.4166 3.75H14.9166V4.5C14.9166 5.29565 14.6006 6.05871 14.0379 6.62132C13.4753 7.18393 12.7123 7.5 11.9166 7.5C11.121 7.5 10.3579 7.18393 9.79531 6.62132C9.2327 6.05871 8.91663 5.29565 8.91663 4.5V3.75" stroke="#F2F2F2" stroke-width="1.5" stroke-linecap="round" stroke-linejoin="round"/>
<path d="M14.9166 3.75L8.91663 3.75V2.75C8.91663 2.21957 9.12734 1.71086 9.50241 1.33579C9.87749 0.960714 10.3862 0.75 10.9166 0.75H12.9166C13.4471 0.75 13.9558 0.960714 14.3308 1.33579C14.7059 1.71086 14.9166 2.21957 14.9166 2.75V3.75Z" stroke="#F2F2F2" stroke-width="1.5" stroke-linecap="round" stroke-linejoin="round"/>
<path d="M15.4518 9.58C16.8418 7.805 18.9288 5.25 19.4178 5.25L20.1678 8.25L23.9178 10.5L23.5098 11.724C23.4103 12.0227 23.2193 12.2826 22.9639 12.4667C22.7085 12.6509 22.4016 12.75 22.0868 12.75H19.4178C18.4996 15.6652 17.9947 18.6946 17.9178 21.75" stroke="#F2F2F2" stroke-width="1.5" stroke-linecap="round" stroke-linejoin="round"/>
<path d="M5.91375 23.2499C5.65809 23.2498 5.40671 23.1844 5.18345 23.0598C4.96019 22.9353 4.77248 22.7557 4.63813 22.5382C4.50378 22.3207 4.42725 22.0724 4.4158 21.817C4.40436 21.5616 4.45839 21.3076 4.57275 21.0789L5.55375 19.1179C5.72495 18.7747 5.75817 18.3789 5.64658 18.0119C5.53498 17.645 5.28705 17.3347 4.95375 17.1449L2.17075 15.5519C1.95534 15.4285 1.77395 15.2535 1.64284 15.0426C1.51173 14.8318 1.435 14.5917 1.41954 14.3439C1.40408 14.0961 1.45036 13.8484 1.55425 13.6229C1.65813 13.3974 1.81636 13.2012 2.01475 13.0519L8.01475 8.55191C8.18273 8.42594 8.37528 8.33664 8.57995 8.28978C8.78462 8.24292 8.99685 8.23956 9.20291 8.2799C9.40896 8.32025 9.60425 8.4034 9.77613 8.52398C9.94802 8.64456 10.0927 8.79989 10.2007 8.97991L11.9307 11.8629C12.0994 12.144 12.3554 12.3621 12.6597 12.4839L15.4717 13.6089C15.8412 13.7566 16.1368 14.0451 16.2936 14.4108C16.4504 14.7765 16.4555 15.1895 16.3077 15.5589C16.16 15.9284 15.8716 16.224 15.5059 16.3808C15.1402 16.5375 14.7272 16.5426 14.3577 16.3949L11.5457 15.2699C10.634 14.9025 9.86647 14.2486 9.35875 13.4069L8.48375 11.9489L5.64075 14.0799L6.44075 14.5399C7.43944 15.1105 8.18174 16.0418 8.51519 17.1426C8.84865 18.2434 8.74794 19.4301 8.23375 20.4589L7.25275 22.4209C7.12835 22.6696 6.93725 22.8789 6.7008 23.0253C6.46434 23.1717 6.19185 23.2494 5.91375 23.2499V23.2499Z" stroke="#F2F2F2" stroke-width="1.5" stroke-linecap="round" stroke-linejoin="round"/>
</g>
<defs>
<clipPath id="clip0_816_28295">
<rect width="24" height="24" fill="white" transform="translate(0.666626)"/>
</clipPath>
</defs>
</svg>
